<?xml version="1.0" encoding="UTF-8" standalone="no"?>
<!-- Created with Inkscape (http://www.inkscape.org/) -->

<svg
   xmlns:dc="http://purl.org/dc/elements/1.1/"
   xmlns:cc="http://creativecommons.org/ns#"
   xmlns:rdf="http://www.w3.org/1999/02/22-rdf-syntax-ns#"
   xmlns:svg="http://www.w3.org/2000/svg"
   xmlns="http://www.w3.org/2000/svg"
   xmlns:sodipodi="http://sodipodi.sourceforge.net/DTD/sodipodi-0.dtd"
   xmlns:inkscape="http://www.inkscape.org/namespaces/inkscape"
   width="377.95312"
   height="60.590931"
   viewBox="0 0 100.00009 16.031356"
   version="1.1"
   id="svg902"
   inkscape:version="0.92.2 (unknown)"
   sodipodi:docname="logo_fix.svg">
  <defs
     id="defs896" />
  <sodipodi:namedview
     id="base"
     pagecolor="#ffffff"
     bordercolor="#666666"
     borderopacity="1.0"
     inkscape:pageopacity="0.0"
     inkscape:pageshadow="2"
     inkscape:zoom="1.979899"
     inkscape:cx="229.55563"
     inkscape:cy="15.729592"
     inkscape:document-units="mm"
     inkscape:current-layer="layer1"
     showgrid="false"
     units="px"
     inkscape:window-width="1920"
     inkscape:window-height="1007"
     inkscape:window-x="0"
     inkscape:window-y="0"
     inkscape:window-maximized="1" />
  <metadata
     id="metadata899">
    <rdf:RDF>
      <cc:Work
         rdf:about="">
        <dc:format>image/svg+xml</dc:format>
        <dc:type
           rdf:resource="http://purl.org/dc/dcmitype/StillImage" />
        <dc:title></dc:title>
      </cc:Work>
    </rdf:RDF>
  </metadata>
  <g
     inkscape:label="Layer 1"
     inkscape:groupmode="layer"
     id="layer1"
     transform="translate(0,-280.96896)">
    <g
       transform="matrix(0.26458333,0,0,0.26458333,-152.83881,55.432693)"
       id="g62"
       style="fill:#f1ca58;fill-opacity:1">
      <path
         inkscape:connector-curvature="0"
         d="m 578.2,906.4 c 0,0.1 -0.1,0.1 -0.2,0.2 v -0.1 z m 18.2,-2.7 c -0.5,2.8 -1.8,4.9 -3.9,6.2 -2.1,1.4 -4.4,1.8 -7.1,1.3 -2.8,-0.6 -5,-2.3 -6.7,-5.1 l 1.4,-0.9 c 1.2,2.3 3.1,3.8 5.6,4.3 1.9,0.4 3.4,0.1 4.5,-0.9 1.2,-1 1.9,-2.3 2.2,-3.6 0.3,-1.7 0.1,-3.2 -0.7,-4.4 -0.8,-1.2 -2.6,-3 -5.2,-5 -2.8,-2.2 -4.6,-4.2 -5.7,-6 -1,-1.7 -1.4,-3.7 -0.9,-5.9 0.3,-2.1 1.5,-3.9 3.3,-5.5 1.7,-1.6 4,-2.2 6.5,-1.6 2.5,0.5 4.4,2 5.7,4.3 l -1.4,1 c -1.1,-2 -2.6,-3.1 -4.6,-3.5 -1.5,-0.4 -2.8,-0.1 -3.8,0.6 -1.1,0.8 -1.8,1.8 -2.1,3.1 -0.3,1.4 0.1,2.7 0.9,4 0.9,1.2 2.5,2.8 5,4.7 3.8,2.8 6,5.3 6.6,7.4 0.5,1.8 0.7,3.8 0.4,5.5 z"
         id="path46"
         style="fill:#f1ca58;fill-opacity:1" />
      <path
         inkscape:connector-curvature="0"
         d="m 666.9,911.4 h -5.6 v -11.3 -32.7 -11.5 h 4.6 c 0,0.1 0.1,0.1 0.2,0 h 0.9 v 44.2 11.3 z"
         id="path48"
         style="fill:#f1ca58;fill-opacity:1" />
      <path
         inkscape:connector-curvature="0"
         d="m 759.9,877.7 -14.5,33.7 h -2.2 l -14.9,-33.7 h 6.1 l 12.1,27.5 11.7,-27.5 z"
         id="path50"
         style="fill:#f1ca58;fill-opacity:1" />
      <path
         inkscape:connector-curvature="0"
         d="m 801.2,906 c -0.9,1.2 -2,2.3 -3.4,3.2 -2.4,1.4 -5.1,2.2 -7.9,2.2 -2.7,0 -5.2,-0.7 -7.7,-2 -2.4,-1.4 -4.3,-3.3 -5.8,-5.8 -1.5,-2.5 -2.3,-5.5 -2.3,-9.1 0,-5.1 1.5,-9.2 4.4,-12.6 2.9,-3.3 6.6,-5 11,-5 4.1,0 7.4,1.2 9.6,3.8 2.3,2.5 3.2,5.2 3.2,8.3 h -21.6 c -0.1,1.5 -0.2,2.7 -0.2,3.4 0,5.6 0.9,9.9 2.6,12.7 1.7,2.8 4.3,4.2 7.7,4.2 4,0 7,-1.5 9,-4.6 z m -20.4,-18.6 h 16.8 c 0,-1.8 -1.5,-8.8 -8.4,-8.8 -4.7,0 -7.4,2.9 -8.4,8.8 z"
         id="path52"
         style="fill:#f1ca58;fill-opacity:1" />
      <path
         inkscape:connector-curvature="0"
         d="m 826.2,882.4 c -1.6,1.5 -2.5,3.1 -3,4.8 -0.4,1.7 -0.5,4.1 -0.6,7 v 5.8 l -0.2,11.4 h -5.6 V 900.1 890.7 877 h 5.2 v 8.5 c 2.2,-7.4 8.6,-9.6 13.5,-7 l -1.1,2.1 c -2.8,-1.6 -5.5,-0.8 -8.2,1.8 z"
         id="path54"
         style="fill:#f1ca58;fill-opacity:1" />
      <path
         inkscape:connector-curvature="0"
         d="m 850.2,881.8 c 3.1,-3.3 6.9,-4.9 11.5,-4.9 4.6,0 8.5,1.6 11.5,4.9 3.1,3.4 4.7,7.4 4.7,12.3 0,5.4 -1.5,9.6 -4.7,12.7 -3.2,3.1 -7,4.6 -11.5,4.6 -4.5,0 -8.3,-1.6 -11.5,-4.7 -3.1,-3.1 -4.7,-7.3 -4.7,-12.6 0,-4.9 1.5,-9 4.7,-12.3 z m 4.1,24.4 c 1.7,2.3 4.2,3.5 7.4,3.5 3.2,0 5.8,-1.2 7.5,-3.5 1.7,-2.2 3,-6.2 3,-11.9 0,-5.6 -1.3,-9.6 -3,-12 -1.7,-2.4 -4.2,-3.6 -7.5,-3.6 -3.2,0 -5.8,1.2 -7.5,3.6 -1.7,2.4 -3,6.4 -3,12 0,5.6 1.3,9.6 3.1,11.9 z"
         id="path56"
         style="fill:#f1ca58;fill-opacity:1" />
      <path
         inkscape:connector-curvature="0"
         d="m 688.7,881.8 c 3.1,-3.3 6.9,-4.9 11.5,-4.9 4.6,0 8.5,1.6 11.5,4.9 3.1,3.4 4.7,7.4 4.7,12.3 0,5.4 -1.5,9.6 -4.7,12.7 -3.2,3.1 -7,4.6 -11.5,4.6 -4.5,0 -8.3,-1.6 -11.5,-4.7 -3.1,-3.1 -4.7,-7.3 -4.7,-12.6 0.1,-4.9 1.6,-9 4.7,-12.3 z m 4.2,24.4 c 1.7,2.3 4.2,3.5 7.4,3.5 3.2,0 5.8,-1.2 7.5,-3.5 1.7,-2.2 3,-6.2 3,-11.9 0,-5.6 -1.3,-9.6 -3,-12 -1.7,-2.4 -4.2,-3.6 -7.5,-3.6 -3.2,0 -5.8,1.2 -7.5,3.6 -1.7,2.4 -3,6.4 -3,12 0,5.6 1.3,9.6 3.1,11.9 z"
         id="path58"
         style="fill:#f1ca58;fill-opacity:1" />
      <path
         inkscape:connector-curvature="0"
         d="m 617.4,881.8 c 3.1,-3.3 6.9,-4.9 11.5,-4.9 4.6,0 8.5,1.6 11.5,4.9 3.1,3.4 4.7,7.4 4.7,12.3 0,5.4 -1.5,9.6 -4.7,12.7 -3.2,3.1 -7,4.6 -11.5,4.6 -4.5,0 -8.3,-1.6 -11.5,-4.7 -3.1,-3.1 -4.7,-7.3 -4.7,-12.6 0,-4.9 1.5,-9 4.7,-12.3 z m 4.1,24.4 c 1.7,2.3 4.2,3.5 7.4,3.5 3.2,0 5.8,-1.2 7.5,-3.5 1.7,-2.2 3,-6.2 3,-11.9 0,-5.6 -1.3,-9.6 -3,-12 -1.7,-2.4 -4.2,-3.6 -7.5,-3.6 -3.2,0 -5.8,1.2 -7.5,3.6 -1.7,2.4 -3,6.4 -3,12 0.1,5.6 1.3,9.6 3.1,11.9 z"
         id="path60"
         style="fill:#f1ca58;fill-opacity:1" />
    </g>
    <path
       inkscape:connector-curvature="0"
       d="m 92.191765,281.38678 c -2.14312,0 -4.07458,0.87312 -5.45041,2.27541 -1.40229,1.40229 -2.24896,3.33375 -2.24896,5.47688 0,4.28625 3.46604,7.75229 7.72583,7.75229 4.259793,0 7.72589,-3.46604 7.72589,-7.75229 -0.0265,-4.28625 -3.492547,-7.75229 -7.75235,-7.75229 z m 6.72043,7.09083 c -0.0529,-0.0265 -0.132295,-0.0529 -0.211675,-0.13229 -0.370412,-0.23813 -1.190622,-0.84667 -2.169582,-0.76729 -0.978963,0.0529 -1.481673,0.52916 -1.957923,0.89958 -0.47625,0.37042 -1.24354,1.40229 -1.42875,1.66687 -0.10583,0.15875 -0.21166,0.26459 -0.29104,0.3175 -0.0529,0.0529 -0.10583,0.0794 -0.15875,0.10584 -0.0265,0.0265 -0.0529,0.0265 -0.0794,0.0529 0,-0.0265 0,-0.0529 0,-0.0794 0,0 0.10584,-1.53458 0.13229,-1.64042 0,-0.13229 0.10584,-1.48166 0.1323,-1.69333 0.0265,-0.21167 0.15875,-1.5875 0.21166,-1.905 0.0794,-0.37042 0.10584,-0.66146 0.21167,-1.03188 0.13229,-0.34395 0.23812,-0.71437 0.58208,-1.05833 0.29104,-0.3175 0.82021,-0.37042 0.97896,-0.3175 2.196043,0.9525 3.810005,3.06917 4.04813,5.58271 z m -9.60438,-5.47688 c 0.0265,0 0.39687,-0.10583 0.635,0 0.23812,0.10584 0.26458,0.10584 0.52916,0.37042 0,0 0.29104,0.37042 0.42334,0.82021 0,0 0.10583,0.34396 0.13229,0.50271 0,0 0.18521,0.9525 0.21166,1.21708 0,0 0.10584,1.00542 0.10584,1.16417 0,0.15875 0.13229,1.40229 0.13229,1.50812 0,0.10584 0.10583,1.42875 0.13229,1.56104 0,0.10584 0.0265,0.29105 0.0265,0.39688 v 0.0265 c -0.0794,-0.0529 -0.10583,-0.10584 -0.10583,-0.10584 -0.10584,-0.0794 -0.29105,-0.3175 -0.66146,-0.8202 -0.60854,-0.84667 -1.27,-1.37584 -1.27,-1.37584 -0.92604,-0.71437 -1.48167,-0.71437 -2.09021,-0.71437 -0.52917,0 -1.48167,0.47625 -1.77271,0.71437 -0.10583,0.0794 -0.18521,0.13229 -0.23812,0.15875 0.21166,-2.38125 1.71979,-4.41854 3.81,-5.42396 z m -3.59834,8.09625 c 0,-0.71437 0.29104,-1.24354 0.71438,-1.66687 0.50271,-0.50271 1.03187,-0.68792 1.79916,-0.52917 0.1323,0.0265 0.26459,0.0794 0.39688,0.15875 0.39687,0.18521 0.79375,0.55563 1.11125,0.87313 0.21167,0.23812 0.42333,0.47625 0.55562,0.635 0.1323,0.15875 0.23813,0.3175 0.34396,0.47625 0.37042,0.50271 0.42334,0.76729 0.58209,1.27 0.26458,0.74083 0.39687,2.88396 0.42333,3.36021 0,0.0265 -0.0265,0.15875 -0.13229,0.23812 v 0 c -2.72521,-0.26458 -5.02709,-2.2225 -5.79438,-4.81542 z m 7.09084,4.81542 c -0.0794,-0.0529 -0.10584,-0.18521 -0.10584,-0.26458 -0.0265,-0.13229 0.10584,-1.45521 0.13229,-1.87854 0.0265,-0.42334 0.18521,-1.19063 0.34396,-1.66688 0.15875,-0.47625 0.39688,-0.92604 0.60854,-1.19062 0.0529,-0.10584 0.89959,-1.13771 1.24355,-1.42875 0.42333,-0.37042 0.767293,-0.50271 1.058333,-0.58209 0.635,-0.15875 1.13771,0 1.56104,0.3175 0.42333,0.3175 0.635,0.60854 0.87313,1.19063 0.10583,0.26458 0.13229,0.58208 0.10583,0.82021 -0.82021,2.54 -3.069173,4.445 -5.820833,4.68312 z"
       id="path64"
       style="fill:#f1ca58;fill-opacity:1;stroke-width:0.26458332" />
  </g>
</svg>
